/* XPM */
static char *bitcoin32[] = {
/* columns rows colors chars-per-pixel */
"32 32 160 2 ",
"   c None",
".  c #010100",
"X  c #080703",
"o  c #0D0B06",
"O  c #0B0A08",
"+  c #120D05",
"@  c #110E09",
"#  c #14110B",
"$  c #1A150C",
"%  c #1D180F",
"&  c #171410",
"*  c #1D1911",
"=  c #241C0C",
"-  c #231D13",
";  c #221F1A",
":  c #2A210F",
">  c #272116",
",  c #2B2316",
"<  c #2C261B",
"1  c #302717",
"2  c #352914",
"3  c #302718",
"4  c #342C1D",
"5  c #3C311D",
"6  c #2C2820",
"7  c #352E21",
"8  c #3C3222",
"9  c #403216",
"0  c #4B3C1F",
"q  c #513E1B",
"w  c #423621",
"e  c #453923",
"r  c #4E3F21",
"t  c #413A2B",
"y  c #493F2A",
"u  c #56421D",
"i  c #4F4227",
"p  c #4A402E",
"a  c #524224",
"s  c #594722",
"d  c #524329",
"f  c #5B4B2E",
"g  c #4A4233",
"h  c #514733",
"j  c #554932",
"k  c #584B33",
"l  c #654D22",
"z  c #624F2A",
"x  c #64522F",
"c  c #6F592E",
"v  c #735B2D",
"b  c #675634",
"n  c #6B5736",
"m  c #6C5836",
"M  c #6C5A38",
"N  c #735E33",
"B  c #735E3A",
"V  c #7B6437",
"C  c #73613D",
"Z  c #7B663F",
"A  c #756442",
"S  c #7B6742",
"D  c #786748",
"F  c #86652A",
"G  c #8E6E2F",
"H  c #866830",
"J  c #8B6D32",
"K  c #8A713F",
"L  c #927337",
"P  c #96773D",
"I  c #9B7A3E",
"U  c #A27D38",
"Y  c #826A42",
"T  c #886F44",
"R  c #8C7345",
"E  c #84714A",
"W  c #8A7348",
"Q  c #967B45",
"!  c #9D7D41",
"~  c #957A4C",
"^  c #9A7D4D",
"/  c #86785B",
"(  c #977F50",
")  c #A6833D",
"_  c #B38832",
"`  c #BD913B",
"'  c #9F8044",
"]  c #9D814B",
"[  c #958056",
"{  c #9D8250",
"}  c #9B855B",
"|  c #A6884E",
" . c #AC8B4B",
".. c #B88F43",
"X. c #B38F49",
"o. c #BF9544",
"O. c #B6914C",
"+. c #BB944A",
"@. c #BE984C",
"#. c #A28452",
"$. c #A28855",
"%. c #AA8C55",
"&. c #A78D58",
"*. c #AE9159",
"=. c #B09053",
"-. c #BB9652",
";. c #BD9954",
":. c #B5945B",
">. c #B9975D",
",. c #BC9A5D",
"<. c #958463",
"1. c #B59963",
"2. c #BB9C62",
"3. c #BC9F68",
"4. c #C09646",
"5. c #C29847",
"6. c #C09749",
"7. c #C29A4C",
"8. c #C39D53",
"9. c #C49F59",
"0. c #C6A055",
"q. c #C6A15B",
"w. c #C8A45E",
"e. c #C29E61",
"r. c #C4A261",
"t. c #C9A663",
"y. c #CBA865",
"u. c #C5A56A",
"i. c #CCAB6B",
"p. c #C6A971",
"a. c #CFAF73",
"s. c #C9AC75",
"d. c #CEAE74",
"f. c #CEAF75",
"g. c #CFAF76",
"h. c #CEAE71",
"j. c #D0AF72",
"k. c #CFB073",
"l. c #CFB074",
"z. c #CFB075",
"x. c #CFB176",
"c. c #CFB073",
"v. c #D1B172",
"b. c #D0B177",
"n. c #D1B277",
"m. c #D0B075",
"M. c #D1B27B",
"N. c #D1B279",
"B. c #D1B47B",
"V. c #D2B47A",
"C. c #D3B77F",
"Z. c #D2B57D",
"A. c #D2B47A",
"S. c #D6B882",
"D. c #D6BB87",
"F. c #D7BC89",
"G. c #D6BC8D",
"H. c #D9C08F",
"J. c #DDC69A",
"K. c #E2CEA8",
/* pixels */
"                                                                ",
"                          >.#.^ ^ #.>.                          ",
"                    %.B e - # o o # - 8 m #.                    ",
"                %.f % . . . . . . . . . . # d #.                ",
"              Y > . 7 d . . . . . . . . . . . $ B               ",
"            n - c Q { 1.b a . . . . . . . . . . . f e.          ",
"          n - ( v.t.i.C.8.e.i . . . . . . . . . . . f           ",
"        Y - } w.5.o.7.i.w.w.>.e . . . . . . . . . . . n         ",
"      %.> Z C.q.8.q.t.C.J.G.w.>.e X . . . . . . . . . # ^       ",
"      f w r.d.x.8.w.d.x.D.K.v.8.2.R f # . . . . . . . . e       ",
"    %.> L 7.9.i.C.C.v.x.C.x.H.w.` 8.p.&.V $ . . . . . . o ~     ",
"    B 5 9.w.q.9.d.G.d.7.q.i.i.i.w.y.i.7.5.v - . . . . . . f     ",
"    e D D.q.8.8.i.d.q.7.7.q.7.7.x.i.q.7.t.q.2.g . . o w 5 3 >.  ",
"  >.1 P y.t.q.9.7.` o.5.! N >.y.i.t.q.8.C.i.C./ - * f a = # #.  ",
"  #.> >.t.q.q.7.o.o.o.O.e . r E *.t.q.q.q.q.w.8.X. .C % . X R   ",
"  ~ > Y  .0.C.q.o.o.o.O.< . . X l X.7.o.v.d.1.u.q.w.u.x . . Y   ",
"  ^ o -  .8.t.q.` o.o.O.8 . . . X l O.6.8.r.W V Q ] R 4 . . Y   ",
"  #.@ p q.O.O.8.o.o.o.7.k . . . . + l O.7.8.9.#.' ) z o . . R   ",
"  >.> / { s X.w.5.o.8.7.R . . . . . + q F >.I  .y.` G o . @ {   ",
"    w - @ $ =.C.8.7.7.w.>.t . . . . . . : f + u 8.7._ v $ > >.  ",
"    m . . - 1.v.t.o.o.8.y.| 6 . . . . . . . . r U ..F F 9 d     ",
"    #.# . # K y.i.7.o.7.i.7.| t . . . . . . . + q v - X o R     ",
"      d . . d $.u.0.6.8.i.o.5.;.A ; . . . . . . . X . . 5 e.    ",
"      #.$ . & n t.7.8.C.8.o.o.o.7.%.j o . . . . . . . o R       ",
"        B . # C q.8.i.i.x.8.o.o.o.5.@.S o . . . . . . f         ",
"          f > ] %.>.%.r.t.i.i.8.6.o.o.7.A o . . . . e >.        ",
"          e.f % - S y [ N O.y.v.d.7.6.o.8.<.h 7 @ e >.          ",
"              m # - & < # ~ -.8.d.i.7.7.5.3.n - f >.            ",
"                ^ e o . . 4 0 K ;.p.=.J u > 5 R                 ",
"                    ~ f > # X $ 2 4 < 1 d T e.                  ",
"                        >.#.R Y S T ] >.                        ",
"                                                                "
};
