/* XPM */
static char *bitcoin64[] = {
/* columns rows colors chars-per-pixel */
"64 64 210 2 ",
"   c None",
".  c #000000",
"X  c #090704",
"o  c #0C0905",
"O  c #0C0B09",
"+  c #070708",
"@  c #120E05",
"#  c #110E08",
"$  c #161107",
"%  c #14110C",
"&  c #1C160C",
"*  c #1E190F",
"=  c #151413",
"-  c #1C1914",
";  c #1A1916",
":  c #221B0C",
">  c #281F0D",
",  c #261A06",
"<  c #231D12",
"1  c #201E19",
"2  c #2B200B",
"3  c #35270D",
"4  c #272013",
"5  c #2A2214",
"6  c #24201A",
"7  c #2B2519",
"8  c #312819",
"9  c #352B16",
"0  c #3C311E",
"q  c #2C2A24",
"w  c #292620",
"e  c #342E24",
"r  c #312F2A",
"t  c #363026",
"y  c #3C3423",
"u  c #3B3529",
"i  c #3E382C",
"p  c #35322B",
"a  c #3D3930",
"s  c #44371C",
"d  c #49391B",
"f  c #483815",
"g  c #533C13",
"h  c #543F1A",
"j  c #423621",
"k  c #453924",
"l  c #4A3D24",
"z  c #433A2A",
"x  c #413C31",
"c  c #58451C",
"v  c #674B18",
"b  c #6F511F",
"n  c #75541D",
"m  c #4F4025",
"M  c #4D412A",
"N  c #544525",
"B  c #5B4620",
"V  c #5D4A22",
"C  c #53442A",
"Z  c #57482C",
"A  c #5A4A2C",
"S  c #4A4233",
"D  c #4A4439",
"F  c #554A34",
"G  c #5B4D32",
"H  c #534938",
"J  c #5C523D",
"K  c #6B552B",
"L  c #685329",
"P  c #775B28",
"I  c #645333",
"U  c #6C5936",
"Y  c #685738",
"T  c #735E3A",
"R  c #715D31",
"E  c #644E23",
"W  c #7E612A",
"Q  c #7B6334",
"!  c #7C663C",
"~  c #746038",
"^  c #665A42",
"/  c #635A48",
"(  c #6E6044",
")  c #7F6840",
"_  c #7C6C4C",
"`  c #716141",
"'  c #736853",
"]  c #7D735E",
"[  c #6F6758",
"{  c #89692E",
"}  c #876527",
"|  c #856C3A",
" . c #896F3B",
".. c #886A31",
"X. c #8E7136",
"o. c #9B7635",
"O. c #9A7A3B",
"+. c #977739",
"@. c #A1792F",
"#. c #826B42",
"$. c #846F48",
"%. c #8C7346",
"&. c #867149",
"*. c #8C754A",
"=. c #8E784C",
"-. c #957943",
";. c #997B42",
":. c #917649",
">. c #947A4B",
",. c #9B7F4C",
"<. c #8B7B5C",
"1. c #877656",
"2. c #927D55",
"3. c #A07D40",
"4. c #877E6C",
"5. c #B58527",
"6. c #B6872A",
"7. c #B7882D",
"8. c #B88A2D",
"9. c #A6813A",
"0. c #AF8737",
"q. c #B98C34",
"w. c #B48B3C",
"e. c #BB8F39",
"r. c #B38835",
"t. c #BC913E",
"y. c #9F8045",
"u. c #9E814C",
"i. c #9E8251",
"p. c #96825B",
"a. c #A48444",
"s. c #AB8743",
"d. c #AE8943",
"f. c #A5864A",
"g. c #AB8A4C",
"h. c #A5884F",
"j. c #B18E4C",
"k. c #B18A42",
"l. c #BE9443",
"z. c #B69149",
"x. c #BB944A",
"c. c #BE984F",
"v. c #A38552",
"b. c #AA8C55",
"n. c #A48B5A",
"m. c #B08F52",
"M. c #AE915A",
"N. c #B29252",
"B. c #B99652",
"V. c #BE9A54",
"C. c #B3935A",
"Z. c #BC9A5C",
"A. c #978664",
"S. c #8F8572",
"D. c #958A73",
"F. c #A38E64",
"G. c #AD9569",
"H. c #B49862",
"J. c #BD9C61",
"K. c #B79C69",
"L. c #B09D76",
"P. c #BCA26F",
"I. c #B9A173",
"U. c #C09746",
"Y. c #C19847",
"T. c #C09748",
"R. c #C1994C",
"E. c #C39D53",
"W. c #C49F59",
"Q. c #C5A057",
"!. c #C6A25C",
"~. c #C8A45E",
"^. c #C29F61",
"/. c #C4A264",
"(. c #C9A563",
"). c #CBA866",
"_. c #C3A56C",
"`. c #C9A769",
"'. c #CCAB6C",
"]. c #D4AD6A",
"[. c #DCB36E",
"{. c #C2A673",
"}. c #CEAE72",
"|. c #C6AC7B",
" X c #CFB075",
".X c #CEB079",
"XX c #D0B176",
"oX c #DFB670",
"OX c #D2B47B",
"+X c #E0B670",
"@X c #B2A78F",
"#X c #CBB487",
"$X c #D3B682",
"%X c #D5B984",
"&X c #D6BC8B",
"*X c #D8BE8D",
"=X c #D8BB84",
"-X c #D8BF93",
";X c #C6B28B",
":X c #D9C08F",
">X c #DAC293",
",X c #DDC69B",
"<X c #DEC89E",
"1X c #DEC7A1",
"2X c #E0CBA3",
"3X c #E2CEA9",
"4X c #E5D3B0",
"5X c #ECDEC2",
"6X c #EEE1C8",
"7X c #F2E8D3",
/* pixels */
"                                                                                                                                ",
"                                                                                                                                ",
"                                                            oXoXoX+X+X                                                          ",
"                                                oX[.].^.C.v.>.%.%.:.u.b.Z.(.[.oX                                                ",
"                                          oX].Z.>.I 0 < O . . . . . . + & 8 C #.C.].[.                                          ",
"                                      [.(.>.C & . . . . . . . . . . . . . . . . # 0 ) Z.[.                                      ",
"                                  [.(.#.8 . . . . . . . . . . . . . . . . . . . . . . * I C.[.                                  ",
"                              [.].:.8 . . . . . . . . . . . . . . . . . . . . . . . . . . & T /.[.                              ",
"                            [.Z.C X . . . u k . . . . . . . . . . . . . . . . . . . . . . . . 8 i.[.                            ",
"                          [.,.< . . . . + $.V.F . . . . . . . . . . . . . . . . . . . . . . . . # T ].                          ",
"                        ].#.# . $ U *._ ^ =./.j.e 5 C + . . . . . . . . . . . . . . . . . . . . . . C /.[.                      ",
"                      ].T X . 8 +.U.T.W.W.Z.|.'.,.T j.G . . . . . . . . . . . . . . . . . . . . . . . k ^.[.                    ",
"                    ].T . . M K.'.'.(.W.~.'.).*XT.N._.z.S . . . . . . . . . . . . . . . . . . . . . . . j /.[.                  ",
"                  [.#.. . d B.XX>X>XOX'.XX>X,X&X(.e.>X'.s.t . . . . . . . . . . . . . . . . . . . . . . . m (.                  ",
"                [.,.# . S {.%XQ.e.7.5.7.7.e.Q.,XQ.5.T.:XT.a.q . . . . . . . . . . . . . . . . . . . . . . . Y ].                ",
"              [.Z.4 . u ;X'.W.W.l.t.T.T.T.W.T.).OX(.e.Q.%XT.u.q . . . . . . . . . . . . . . . . . . . . . . + :.[.              ",
"              ].C . & +.).OXU.T.Q.Q.).'.'.'.XX%X>X<X*Xl.Q.%XU.n.q . . . . . . . . . . . . . . . . . . . . . . < Z.              ",
"            [.:.. . $.}.OX&X(.W.Q.Q.W.T.W.).OX&X>X3X6X>Xe.Q.OXT.i.7 . O O . . . . . . . . . . . . . . . . . . . A ].            ",
"            (.8 . l '.}..X&X$XT.l.T.T.Q.}.}.$X%X%X,X5X7X%X7.Q.$XQ.G.S Q ( . . . . . . . . . . . . . . . . . . . + v.[.          ",
"          [.#.. $ y.(.Q.W.}.,X&XT.T.).'.&X XW.~.OX%X%X3X6X'.5.Q.&X~./.e.z.S - < . . . . . . . . . . . . . . . . . l ].          ",
"          (.8 . G W.e.e.W.T.(.&X&XOX}.'.'. XXX&X%XQ.Q.'.&X2XW.5.e.7.W.).W.K.2.O.Z F X . . . . . . . . . . . . . . + v.oX        ",
"        oX>.. # o.e.l.(.Q./.(.Q.'.-X&X$X}.$XOXOX&X&XOXXX%X,X2XW.e.5.7.}.>X$X%X'.t.z.y . . . . . . . . . . . . . . . A [.        ",
"        ].C . d W.(.'.(.`.Q.W.'.'.`.}.&X1X'.l.T.l.}.OXXXXX X}.}.OX(.T.l.XX}.T.W.~.e...$ . . . . . . . . . . . . . . - K.        ",
"        Z.& . ..~.(.~.Q.W.(.Q.l.'.&X,X>X'.W.l.e.l.}.Q.Q.(.(.'.Q.l.(.,XXX'.(.W.e.l.Q.e.Q y 6 . . . . . . . . . . . . . :.oX      ",
"      oX>.. < ;X-X}.W.t.W.W.e.e.Q.-X>X>X$X'.Q.(.W.T.'.T.e.T.l.Q.%X XOX'.Q.W.e.e.e.T.Q.~./.N.J . . . . . . . . O 6 $ . A [.      ",
"      [.I . l  X>X&X'.W.W.W.W.Q.'.(./.T.l.W.T.e.l.t.'.'.T.T.W.e.}.,XQ.T.W.Q.'.'.OX%X'.e.W.=XI.; . . . . . = F %.a.h . 5 (.      ",
"      ].0 . K T.Q.OX'.OX'.'.'.(.Q.t.t.l.e.e.W.l.T.Z.>.h.'.T.Q.W.(.Q.~.(.(.W.T.Q.*X3X,XQ.Q.4X@X= . . . . 7 ;.a.P c : . # C.      ",
"      ^.- . X.T.Q.'.l.).l.W.t.W.W.e.5.e.W.t.l.l.w.I $ c b.}.'.OX'.'.XX).(.Q.W.t.T.%XOX(.OX&XI.1.x 6 - -  . .: X . . . . >.oX    ",
"      C.O @ a.).'.T.(.(.'.Q.l.l.7.T.W.l.l.l.e.W.*.O . @ V ;.P.|.P.Z.~.'.'.'.'.Q.T.l.l.t.l.T.T.Y.B.m.f.M.2.$ . . . . . . ! oX    ",
"      v.. < {.OXQ.'.Q.(.Q.Q.Q.W.l.l.T.t.t.W.W.t.G . . . X 5 N N ) V.(.Q.T.l.W.'.'.(.'.'.'.).Q.(.l.T.U.l.1.Y K $ . . . . I [.    ",
"    +X>.. 7 _.Z.H.W.T.Q.OXOX(.Q.t.7.t.Q.l.7.l./.S . . . . . . + E j.W.Q.T.T.l.l.OX&X'.OX$XOX'.).T.Q.e.(.#X'.;.$ . . . . A [.    ",
"    +X%.. 5 ! s  .l.W.Q.%X&XOXt.l.Q.l.e.l.W.T.W.S . . . . . . . 2 v o.x.W.T.l.e.).&X%XH.>.b.|..X'.W.Q.$X}.W.f.F . . . . C [.    ",
"    oX%.. . + $ u.Q.U.Q.).OX'.t.l.l.l.l.l.l.l.W.H . . . . . . . . @ g o.W.W.t.l.l.W.'.{.` N ! j.V.Z.W.Z.g.g.N $ . . . . C [.    ",
"    +X:.. . . 0 Z.~.e.Q.W.Q.}.(.e.5.e.Q.T.e.e.(.' . . . . . . . . . & { @.Z.T.x.t.Q.T.Q._.! d V A R  .Y K :.t . . . . . C [.    ",
"    +Xu.. . . Y '.W.t.Q.W.e.).).l.l.l.8.e.T.Q.Y.1.. . . . . . . . . @ , g m.W.W.W.W.T.T.Q.'.%.I ! &.a.X.I y 1 . . . . . I [.    ",
"      b.+ . O A.'.W.t.N.W.e.Q.l.7.Q.W.l.l.t.e.T.G.= . . . . . . . . . . : P 9.W.x.W.W.W.e.(.$X'.Y.t.W.e.9.e . . . . . . ~ [.    ",
"      Z.& . D #X'.Q.~ K z.l.'.T.T.t.7.l.Q.e.e.t.x.x . . . . . . . . . . . , P ;.} z.W.'.W.l.l.'.&XT.e.t.e.I . . . . . . %.oX    ",
"      (.8 . 4.#Xn.A + 3 0.W.%XT.~.T.l.T.W.W.(.T.T.<.. . . . . . . . . . . . 3 : 3 o./.H.,.v } s.`.OXe.e.8. .O . . . . + b.      ",
"      [.C . 8 M : . . > 9.(.%XOXl.7.l.}.W.Q.OXW.l.{.a . . . . . . . . . . . . . + v G.U : X , P V.(.Q.5.5.0.G $ . . . < ^.      ",
"      oX#.. . . . . . : f.'.'.,XQ.W.W.t.l.e.t.OXQ.U.A.= . . . . . . . . . . . . . : M $ . . . W W.e.'.W.e.7.r.+.Z O . l ].      ",
"        C.# . . . . . 5 I.'.'.OXXXl.l.l.e.T.l.'.>Xl.(.] + . . . . . . . . . . . . . . . . . 8 ;.o.t.l.x.s.0.0.e.9.& . ! [.      ",
"        ].0 . . . . . i I.Q.'.'.%XW.e.l.W.Q.T.e.&Xl.l.V.' O . . . . . . . . . . . . . . . . l C n x.w.r.v g h b B . # C.        ",
"        [.#.. . . . . p ~ V.~.}.OXQ.Q.T.W.e.t.t.OX(.W.U./.] = . . . . . . . . . . . . . . . & + g O.o.g.l . . + + . k ].        ",
"          Z.* . . . . + d N.W.'.OX'.W.t.e.T.t.Q.&X).W.5.t.T.p.p . . . . . . . . . . . . . . . . , s m V e . . . . . :.[.        ",
"          [.I . . . . . 2 u.B.b.}.'.Q.Q.T.Q.T.W.>XT.T.t.W.l.W.;X[ - . . . . . . . . . . . . . . . + . @ . . . . . 8 (.          ",
"            C.& . . . . + #.1.*.}.'.(.W.l.t.t.T.>XT.~.t.l.Q.e.W.W.F.H O . . . . . . . . . . . . . . . . . . . . . %.[.          ",
"            [.T . . . . . H i >.).'.l.T.U.W.'.>XW.e.U.5.l.t.e.T.e.U.}.D.r . . . . . . . . . . . . . . . . . . . 0 (.            ",
"              /.8 . . . . $ : y.'.'.l.Q.T.'.>X*XQ.l.~.T.T.Q.l.T.(.t.e.~.C./ O . . . . . . . . . . . . . . . . # v.[.            ",
"              [.i.# . . . . @ %.}.W.e.l.Q.OX).'.<XW.l.e.7.T.e.t.T.e.t.T.e.W.<.- . . . . . . . . . . . . . . . U [.              ",
"                [.T . . O t J M.U.Q.W.}.%X(.Q.(.OX%XXXl.t.Q.W.l.Q.l.t.Q.l.W.).A.- . . . . . . . . . . . . . j (.                ",
"                  ].C . O ! W.(.T.'.OXQ.V./.~.'.OX~.'.,X(.T.t.5.T.e.l.l.5.l.t.t.<.= . . . . . . . . . . . 5 C.[.                ",
"                    /.k . @ W /.p.2.Z.B.Q f./.(././.T.'.OX%X'.T.Q.T.T.Q.l.Q.l.t.Q.' + . . . . . + . . . * b.[.                  ",
"                    [.^.j . # y $ 8  .L.e s n.'.+.X.x.W.Q.'.>X*X'.t.T.U.e.T.e.T.Q._.S.S O . O - y O . * v.[.                    ",
"                      [./.M . . . . k G.u + A.F.< f a.Q.~.(.W.}.,X%XQ.l.W.W.e.l.t.l.>X#Xp.1.<.S + . 5 b.[.                      ",
"                        [.(.Y + . . < ^ 1 O ^ a . @  .'.Q.Q.T.W.(.>X%Xl.W.T.T.Q.l.e.'.*X(.;.0 . . j C.[.                        ",
"                            ].:.< . . + . . $ . . . _ H.d.d.x.~. XU.:X'.W.T.W.l.e.W.Q.L.G + . O U (.[.                          ",
"                              [.Z.A + . . . . . . O / s Q K b.Z.'.W.(.2XT.t.~.U.w.{ m $ . . 0 v.[.                              ",
"                                  ].v.l + . . . . X - + & < l X.T.W.W.,X/.b.} g > . . . 8 %.(.[.                                ",
"                                    [.].v.A - . . . . . . . . 9 B h m z 7 $ . . . # k *.(.[.                                    ",
"                                        oX[.K.*.A 5 # . . . . . . . . . . + < l ! C.].oX                                        ",
"                                              oX[.(.C.>.! I A C C C I T %.b.^.].oX                                              ",
"                                                      oXoX[.[.[.[.[.[.[.oX                                                      ",
"                                                                                                                                ",
"                                                                                                                                "
};
