/* XPM */
static char *bitcoin16[] = {
/* columns rows colors chars-per-pixel */
"16 16 151 2 ",
"   c None",
".  c black",
"X  c #000001",
"o  c #010101",
"O  c #030303",
"+  c #040302",
"@  c #050403",
"#  c #060502",
"$  c #040404",
"%  c #0C0A07",
"&  c #0E0C07",
"*  c #0E0C08",
"=  c #100D08",
"-  c #120F09",
";  c #130F09",
":  c #120F0A",
">  c #12100A",
",  c #14100A",
"<  c #1C160A",
"1  c #1F1910",
"2  c #1F1A10",
"3  c #21190B",
"4  c #291F0D",
"5  c #211C12",
"6  c #211C13",
"7  c #241D11",
"8  c #272115",
"9  c #2C2517",
"0  c #2C2518",
"q  c #2F281B",
"w  c #312817",
"e  c #322817",
"r  c #342A18",
"t  c #372D1C",
"y  c #382F1C",
"u  c #3B301E",
"i  c #3C321E",
"p  c #3D321F",
"a  c #503D1B",
"s  c #403622",
"d  c #433722",
"f  c #423724",
"g  c #473923",
"h  c #4A3B22",
"j  c #4B3F26",
"k  c #4C3E27",
"l  c #4D3F27",
"z  c #4E3F27",
"x  c #463C29",
"c  c #473D29",
"v  c #493F2B",
"b  c #4F4028",
"n  c #514224",
"m  c #514326",
"M  c #504227",
"N  c #564729",
"B  c #57482B",
"V  c #5C4C2D",
"C  c #5E4C2E",
"Z  c #6C5324",
"A  c #64502D",
"S  c #68532D",
"D  c #6E582D",
"F  c #795E2C",
"G  c #635131",
"H  c #605133",
"J  c #675532",
"K  c #665433",
"L  c #665533",
"P  c #665435",
"I  c #685534",
"U  c #695735",
"Y  c #6A5734",
"T  c #6D5937",
"R  c #6F5A38",
"E  c #6C5B3A",
"W  c #745E35",
"Q  c #715D39",
"!  c #735D3A",
"~  c #735E3A",
"^  c #745F3A",
"/  c #755F3A",
"(  c #786034",
")  c #75603A",
"_  c #75603B",
"`  c #78633A",
"'  c #7B653A",
"]  c #78623C",
"[  c #9B7A3C",
"{  c #806A40",
"}  c #856F44",
"|  c #8B764E",
" . c #9C7F46",
".. c #9D814B",
"X. c #A18143",
"o. c #A38346",
"O. c #A38549",
"+. c #AB8A4D",
"@. c #AD8D4F",
"#. c #B38D44",
"$. c #B08F4E",
"%. c #B69046",
"&. c #BF9443",
"*. c #B89246",
"=. c #BF9544",
"-. c #BC954A",
";. c #A48750",
":. c #A98E59",
">. c #B19154",
",. c #B59456",
"<. c #B89656",
"1. c #BB9957",
"2. c #B69759",
"3. c #BB9B5F",
"4. c #BE9E60",
"5. c #BFA062",
"6. c #C39A4A",
"7. c #C39A4B",
"8. c #C0984D",
"9. c #C39B4E",
"0. c #C39C50",
"q. c #C59E53",
"w. c #C29D56",
"e. c #C69F55",
"r. c #C49E56",
"t. c #C09D5A",
"y. c #C39F5A",
"u. c #C59F58",
"i. c #C19F5F",
"p. c #C7A159",
"a. c #C5A05A",
"s. c #C7A25B",
"d. c #C7A35B",
"f. c #C8A35C",
"g. c #C8A35E",
"h. c #C0A063",
"j. c #C7A461",
"k. c #C9A562",
"l. c #CAA763",
"z. c #C8A665",
"x. c #C8A666",
"c. c #CBA966",
"v. c #CCA864",
"b. c #C9A869",
"n. c #CCAA6A",
"m. c #CEAC6B",
"M. c #CCAB6D",
"N. c #CFAE70",
"B. c #CEAE71",
"V. c #D0B179",
"C. c #D9BE8B",
/* pixels */
"                                ",
"          d 1 , , 1 i Q         ",
"      P V E y + + + + : b       ",
"    P } w.c.4.B + + + + + z     ",
"    ) M.s.B.C.h.P 8 + + + % E   ",
"  P +.z.V.M.B.M.s.2.D : + + i   ",
"  Q z.w.s.8.o.1.M.g.z.| 6 t w   ",
"  Y t.g.&.#.w i  .w.z.3.@.Y : ` ",
"  d $.w.6.%.9 + 4 [ w.;.O.M % ` ",
"  v N ,.8.w.P + + 3 S ( -.Z 6   ",
"  i : :.s.8.,.z + + + < F a z   ",
"  Q : P s.g.w.&.` 6 + + + % Y   ",
"    z M ,.5.h.w.8.o.q + + g     ",
"      V d c ` t.c.8...c z       ",
"        T t 0 M } W A Q         ",
"              Q Q               "
};
