/* XPM */
static char *bitcoin32[] = {
/* columns rows colors chars-per-pixel */
"32 32 141 2 ",
"   c #090703",
".  c #0A0906",
"X  c #110E0A",
"o  c #171105",
"O  c #15120B",
"+  c #1A150B",
"@  c #1D180E",
"#  c #0F0F10",
"$  c #151413",
"%  c #1E1E1D",
"&  c #281F0E",
"*  c #231E13",
"=  c #201F1F",
"-  c #252017",
";  c #2C2414",
":  c #2A261F",
">  c #342A16",
",  c #332C1E",
"<  c #392E19",
"1  c #3F3014",
"2  c #3C311E",
"3  c #212121",
"4  c #2F2B22",
"5  c #352E20",
"6  c #3D3423",
"7  c #323232",
"8  c #3C3C3C",
"9  c #4C3B1D",
"0  c #493D24",
"q  c #463D2B",
"w  c #56431E",
"e  c #614A1F",
"r  c #4A402C",
"t  c #544425",
"y  c #594723",
"u  c #53452A",
"i  c #5B4B2D",
"p  c #524936",
"a  c #5C4E33",
"s  c #634C22",
"d  c #67532B",
"f  c #755B2C",
"g  c #695734",
"h  c #735E34",
"j  c #725F3A",
"k  c #79602F",
"l  c #7F6637",
"z  c #796338",
"x  c #434344",
"c  c #464648",
"v  c #494A4A",
"b  c #535353",
"n  c #756442",
"m  c #796742",
"M  c #7D6A45",
"N  c #626262",
"B  c #6A6A6A",
"V  c #797979",
"C  c #86662C",
"Z  c #8B6E34",
"A  c #89703F",
"S  c #937230",
"D  c #92743C",
"F  c #A17D39",
"G  c #8E7544",
"H  c #84714A",
"J  c #8D764A",
"K  c #967A45",
"L  c #9E7D41",
"P  c #917A4D",
"I  c #86785C",
"U  c #8D7D5E",
"Y  c #917C55",
"T  c #A7843E",
"R  c #B58933",
"E  c #BC913C",
"W  c #C0933D",
"Q  c #9E8045",
"!  c #9D824F",
"~  c #9C8351",
"^  c #A4864C",
"/  c #AB8A4B",
"(  c #B38F49",
")  c #BF9544",
"_  c #B5904C",
"`  c #BB954B",
"'  c #A28856",
"]  c #AA8D53",
"[  c #A88E5A",
"{  c #AD9059",
"}  c #BA9651",
"|  c #BD9853",
" . c #B1935A",
".. c #BC9B5B",
"X. c #978563",
"o. c #B39762",
"O. c #B49965",
"+. c #B99B62",
"@. c #C09646",
"#. c #C29846",
"$. c #C09748",
"%. c #C29A4C",
"&. c #C49D53",
"*. c #C29E5B",
"=. c #C6A056",
"-. c #C6A15B",
";. c #C8A45E",
":. c #C5A361",
">. c #C9A662",
",. c #CBA866",
"<. c #C5A66B",
"1. c #CCAB6C",
"2. c #C6A971",
"3. c #CEAF74",
"4. c #CFB075",
"5. c #D0B074",
"6. c #D2B37A",
"7. c #838383",
"8. c #8D8D8D",
"9. c #979798",
"0. c #9B9B9B",
"q. c #A4A4A4",
"w. c #A9A9A9",
"e. c #B4B4B4",
"r. c #BDBDBE",
"t. c #D6BA84",
"y. c #D7BC8E",
"u. c #D8BD8A",
"i. c #D9C08F",
"p. c #DDC69A",
"a. c #E2CFA8",
"s. c #C0C0C0",
"d. c #CACACA",
"f. c #D5D5D5",
"g. c #DCDCDC",
"h. c #E7E7E7",
"j. c #E8E7E7",
"k. c #EBEBEB",
"l. c #F4F4F4",
"z. c #F6F6F6",
"x. c #FFFFFF",
/* pixels */
"x.x.x.x.x.x.x.x.x.x.x.x.x.x.x.x.x.x.x.x.x.x.x.x.x.x.x.x.x.x.x.x.",
"x.x.x.x.x.x.x.x.x.x.x.x.h.r.0.8.8.9.e.f.l.x.x.x.x.x.x.x.x.x.x.x.",
"x.x.x.x.x.x.x.x.x.k.q.b 3 .           $ 8 8.g.x.x.x.x.x.x.x.x.x.",
"x.x.x.x.x.x.x.x.w.8                         3 7.k.x.x.x.x.x.x.x.",
"x.x.x.x.x.x.j.B .   , u                         8 d.x.x.x.x.x.x.",
"x.x.x.x.x.g.v . d K ~ O.g t                       3 e.x.x.x.x.x.",
"x.x.x.x.h.c X J 5.>.1.6.| +.u                       % s.x.x.x.x.",
"x.x.x.x.B X Y ;.%.) %.1.:.-...0                       7 g.x.x.x.",
"x.x.x.w.. j 6.-.&.-.>.6.p.u.;...q .                     B x.x.x.",
"x.x.k.8 < *.3.5.&.;.3.5.t.a.6.=.+.G i O                 $ s.x.x.",
"x.x.q.. Z %.-.1.6.6.6.5.6.5.i.>.E &.2.[ l @               N x.x.",
"x.x.b > ..>.;.-.3.y.3.%.;.1.1.1.;.1.1.&.%.k *             % g.x.",
"x.h.% n t.-.&.&.1.3.-.%.%.-.%.%.5.1.-.&.>.-.+.p       2 9   w.x.",
"x.r.X D 1.>.-.-.` E ) @.L h ..,.1.,.;.&.6.1.6.U * + i t &   V x.",
"x.0.O  .>.;.;.%.) ) ) ` 0   0 H { >.-.-.-.-.>.&.( ^ n @     b x.",
"x.8.O M / -.6.;.) ) ) ` ,       s ( %.) 4.3.O.<.-.-.<.g     v l.",
"x.8.  * / &.,.;.E ) ) ` 6         e ( ` &.:.J z K ! G 2     c l.",
"x.9.  r :.` ` &.) ) ) %.a         . s _ %.&.&.' Q T d .     b x.",
"x.e.. I ~ y ( ;.$.@.&.%.G .         . 9 C ..D / ,.W S .     B x.",
"x.f.% - X + ] 6.&.%.%.;...q             & i O 9 | %.R f *   0.x.",
"x.l.x     * o.5.>.) @.&.,.] 4                 9 D ( C C w $ d.x.",
"x.x.8.    O A ,.1.%.) %.1.%./ q               X 9 f ;     c l.x.",
"x.x.g.3     u ' 1.-.$.&.1.) #.| n =                       q.x.x.",
"x.x.x.7.    $ g >.%.&.6.=.) ) ) %.] p .                 x l.x.x.",
"x.x.x.k.8   O z -.&.1.1.4.&.) ) ) ) ` M .             $ r.x.x.x.",
"x.x.x.x.d.3 ; ^ ] ..] :.>.1.1.&.` ) ) ` n .     .     9.x.x.x.x.",
"x.x.x.x.x.e.= + * m r Y h _ ,.4.3.&.` ) &.X.p q *   7.x.x.x.x.x.",
"x.x.x.x.x.x.s.7   * $ : O P } &.3.1.%.%.#.1.J ; $ 8.l.x.x.x.x.x.",
"x.x.x.x.x.x.x.g.B #       5 9 A &.4...F f , . x r.x.x.x.x.x.x.x.",
"x.x.x.x.x.x.x.x.x.s.N %       o 1 2 ; X $ x q.l.x.x.x.x.x.x.x.x.",
"x.x.x.x.x.x.x.x.x.x.x.g.w.V b v c v B 9.d.l.x.x.x.x.x.x.x.x.x.x.",
"x.x.x.x.x.x.x.x.x.x.x.x.x.x.x.l.l.x.x.x.x.x.x.x.x.x.x.x.x.x.x.x."
};
