/* XPM */
static char *bitcoin16[] = {
/* columns rows colors chars-per-pixel */
"16 16 100 2 ",
"   c #050402",
".  c #0B0B0A",
"X  c #100D07",
"o  c #15130E",
"O  c #1B150A",
"+  c #171717",
"@  c #1C1A15",
"#  c #19191A",
"$  c #281E0D",
"%  c #231E14",
"&  c #252016",
"*  c #282216",
"=  c #2E2618",
"-  c #322918",
";  c #39301C",
":  c #3B311D",
">  c #383124",
",  c #3E392F",
"<  c #2F3030",
"1  c #333332",
"2  c #3F3A31",
"3  c #3A3A3A",
"4  c #46391F",
"5  c #543F1B",
"6  c #4C3E24",
"7  c #473D28",
"8  c #4D4027",
"9  c #4F432B",
"0  c #574729",
"q  c #59492C",
"w  c #44433F",
"e  c #5D4F34",
"r  c #5C513C",
"t  c #68532D",
"y  c #715725",
"u  c #705A2E",
"i  c #785D2C",
"p  c #655537",
"a  c #685634",
"s  c #6A5937",
"d  c #786034",
"f  c #78643D",
"g  c #7D683F",
"h  c #3F3F40",
"j  c #414141",
"k  c #4E4E4E",
"l  c #555555",
"z  c #5E5C57",
"x  c #645840",
"c  c #666259",
"v  c #777673",
"b  c #7A7A7A",
"n  c #9A793C",
"m  c #8E784F",
"M  c #9C7E46",
"N  c #A38447",
"B  c #A78649",
"V  c #B48E44",
"C  c #B79146",
"Z  c #BF9543",
"A  c #B1904F",
"S  c #BC954A",
"D  c #A58851",
"F  c #AE8E50",
"G  c #A88D59",
"H  c #B59456",
"J  c #B99756",
"K  c #BB9957",
"L  c #B7985A",
"P  c #BF9F61",
"I  c #C0994E",
"U  c #C29D55",
"Y  c #C19E5B",
"T  c #C6A056",
"R  c #C7A25B",
"E  c #C8A45E",
"W  c #C0A062",
"Q  c #C1A164",
"!  c #C8A665",
"~  c #CBA967",
"^  c #CDAC6E",
"/  c #CEAE71",
"(  c #D0AF70",
")  c #D0B179",
"_  c #858481",
"`  c #8C8C8C",
"'  c #8F9090",
"]  c #909091",
"[  c #9B9B9B",
"{  c #AAAAAB",
"}  c #B7B7B7",
"|  c #D9BE8B",
" . c #CBCBCC",
".. c #CFCFD1",
"X. c #D3D3D3",
"o. c #DBDCDD",
"O. c #E2E2E2",
"+. c #EEEEEE",
"@. c #F5F5F5",
"#. c #FFFFFF",
/* pixels */
"#.#.#.#.#.@.X.} }  .@.#.#.#.#.#.",
"#.#.#.#.{ k # . . + j [ @.#.#.#.",
"#.#.+.v 9 s ;           l O.#.#.",
"#.#.v f U ~ P q           k +.#.",
"#.{ p ^ R / | Q a *         ` #.",
"@.c B ! ) ^ ( ^ R L u o     1 O.",
"..x ! R R I N K ^ E ! m % - & } ",
"} e Y E Z V - ; M U ! P F s   ] ",
"} > A U Z C =   $ n U D B 0   ' ",
" .2 0 H I U a     $ t d S y o { ",
"@.h X G E I J 8       O i 5 , o.",
"#.[   p R E T Z f %         b #.",
"#.@.l 6 H Q Q U I N -     3 O.#.",
"#.#.O.z - 7 f R ~ I B 7 w X.#.#.",
"#.#.#.+.` < @ 4 g s r _ O.#.#.#.",
"#.#.#.#.#.O.} ] ' { o.#.#.#.#.#."
};
