/* XPM */
static char *bitcoin64[] = {
/* columns rows colors chars-per-pixel */
"64 64 198 2 ",
"   c #000000",
".  c #090703",
"X  c #0B0B0A",
"o  c #110D05",
"O  c #100F0C",
"+  c #12100D",
"@  c #1D1609",
"#  c #1B160C",
"$  c #141414",
"%  c #181612",
"&  c #1B1914",
"*  c #1C1C1B",
"=  c #231907",
"-  c #2C1E06",
";  c #231C0D",
":  c #291E0C",
">  c #231E13",
",  c #201E1A",
"<  c #2D220E",
"1  c #35260C",
"2  c #2C2312",
"3  c #292317",
"4  c #24211B",
"5  c #362B15",
"6  c #352C1C",
"7  c #3D331F",
"8  c #232323",
"9  c #2F2B24",
"0  c #2C2C2C",
"q  c #332E25",
"w  c #3B3426",
"e  c #353129",
"r  c #3A352A",
"t  c #343434",
"y  c #3A3630",
"u  c #3B3B3B",
"i  c #4C350F",
"p  c #43361A",
"a  c #493818",
"s  c #543C15",
"d  c #443923",
"f  c #4C3E25",
"g  c #443C2A",
"h  c #423D33",
"j  c #59461E",
"k  c #6A4D17",
"l  c #6D4F1C",
"z  c #4F432B",
"x  c #544525",
"c  c #5E4A22",
"v  c #54462A",
"b  c #5D4C2C",
"n  c #494233",
"m  c #4A4439",
"M  c #534937",
"N  c #5A4D34",
"B  c #5D513A",
"V  c #604B22",
"C  c #6C5424",
"Z  c #65542F",
"A  c #6B562C",
"S  c #755A28",
"D  c #625335",
"F  c #62553A",
"G  c #6D5C39",
"H  c #735E34",
"J  c #7E632F",
"K  c #75623C",
"L  c #796338",
"P  c #464646",
"I  c #4A4A4A",
"U  c #595244",
"Y  c #525252",
"T  c #5B5B5B",
"R  c #685B43",
"E  c #7C6A45",
"W  c #786848",
"Q  c #776C58",
"!  c #7F7156",
"~  c #676767",
"^  c #6B6B6B",
"/  c #717171",
"(  c #7B7B7B",
")  c #876527",
"_  c #846935",
"`  c #886C35",
"'  c #836B3B",
"]  c #8F733F",
"[  c #937333",
"{  c #9A7635",
"}  c #98783A",
"|  c #A27D37",
" . c #846E40",
".. c #857046",
"X. c #8B7445",
"o. c #8A754B",
"O. c #917644",
"+. c #9C7D41",
"@. c #997E46",
"#. c #957C4C",
"$. c #897856",
"%. c #937F57",
"&. c #837863",
"*. c #B68629",
"=. c #B7882C",
"-. c #B88A2E",
";. c #AA853C",
":. c #B38837",
">. c #B98C34",
",. c #B68C3D",
"<. c #BB8F39",
"1. c #BC913D",
"2. c #9D824B",
"3. c #94815B",
"4. c #9A855B",
"5. c #A38345",
"6. c #AA8643",
"7. c #A4864B",
"8. c #AB8B4C",
"9. c #B18B44",
"0. c #B18D48",
"q. c #BE9443",
"w. c #B69148",
"e. c #BA944C",
"r. c #A28855",
"t. c #A98C52",
"y. c #AA8F5B",
"u. c #AB905D",
"i. c #B29151",
"p. c #B99755",
"a. c #BD9954",
"s. c #BC9A5A",
"d. c #938262",
"f. c #9C8863",
"g. c #968B75",
"h. c #A99369",
"j. c #AD966A",
"k. c #B59B67",
"l. c #BB9C62",
"z. c #B49B6C",
"x. c #BBA16E",
"c. c #B9A37B",
"v. c #C09646",
"b. c #C39947",
"n. c #C09748",
"m. c #C2994C",
"M. c #C49D53",
"N. c #C49F58",
"B. c #C6A057",
"V. c #C6A25B",
"C. c #C19F60",
"Z. c #C4A465",
"A. c #C9A662",
"S. c #CBA866",
"D. c #C2A46C",
"F. c #CCAB6C",
"G. c #D0AE6D",
"H. c #C4A976",
"J. c #CEAE72",
"K. c #CFB074",
"L. c #CEB27B",
"P. c #D0B175",
"I. c #D2B47B",
"U. c #838383",
"Y. c #8B8B8B",
"T. c #939393",
"R. c #9E9E9E",
"E. c #BDAE91",
"W. c #A2A2A2",
"Q. c #ABABAB",
"!. c #B3B3B3",
"~. c #BDBDBD",
"^. c #C3AD83",
"/. c #CDB689",
"(. c #D2B682",
"). c #D5B984",
"_. c #D7BC8A",
"`. c #D8BE8C",
"'. c #D8BF92",
"]. c #D9C08F",
"[. c #DAC293",
"{. c #DDC59A",
"}. c #DEC89E",
"|. c #E1CA9E",
" X c #DEC7A1",
".X c #E1CDA5",
"XX c #E5D2AD",
"oX c #C6C6C6",
"OX c #CDCDCD",
"+X c #D1D1D1",
"@X c #DBDBDB",
"#X c #EBDDC1",
"$X c #EEE1C8",
"%X c #F2E8D3",
"&X c #E4E4E4",
"*X c #ECECEC",
"=X c #F4F4F4",
"-X c #FFFFFF",
/* pixels */
"-X-X-X-X-X-X-X-X-X-X-X-X-X-X-X-X-X-X-X-X-X-X-X-X-X-X-X-X-X-X-X-X-X-X-X-X-X-X-X-X-X-X-X-X-X-X-X-X-X-X-X-X-X-X-X-X-X-X-X-X-X-X-X-X",
"-X-X-X-X-X-X-X-X-X-X-X-X-X-X-X-X-X-X-X-X-X-X-X-X-X-X-X-X-X-X-X-X-X-X-X-X-X-X-X-X-X-X-X-X-X-X-X-X-X-X-X-X-X-X-X-X-X-X-X-X-X-X-X-X",
"-X-X-X-X-X-X-X-X-X-X-X-X-X-X-X-X-X-X-X-X-X-X-X-X-X-X-X-X-X=X=X*X*X*X=X=X-X-X-X-X-X-X-X-X-X-X-X-X-X-X-X-X-X-X-X-X-X-X-X-X-X-X-X-X",
"-X-X-X-X-X-X-X-X-X-X-X-X-X-X-X-X-X-X-X-X-X-X-X-X*XOXW.( T u t t t t u P ~ U.!.@X=X-X-X-X-X-X-X-X-X-X-X-X-X-X-X-X-X-X-X-X-X-X-X-X",
"-X-X-X-X-X-X-X-X-X-X-X-X-X-X-X-X-X-X-X-X-X*X!./ t $                           * I Y.OX-X-X-X-X-X-X-X-X-X-X-X-X-X-X-X-X-X-X-X-X-X",
"-X-X-X-X-X-X-X-X-X-X-X-X-X-X-X-X-X-X-X@XY.u X                                       $ Y Q.=X-X-X-X-X-X-X-X-X-X-X-X-X-X-X-X-X-X-X",
"-X-X-X-X-X-X-X-X-X-X-X-X-X-X-X-X-X&XY.0                                                 X P !.=X-X-X-X-X-X-X-X-X-X-X-X-X-X-X-X-X",
"-X-X-X-X-X-X-X-X-X-X-X-X-X-X-X-XQ.t                                                         X T +X-X-X-X-X-X-X-X-X-X-X-X-X-X-X-X",
"-X-X-X-X-X-X-X-X-X-X-X-X-X-X&X^ X         r g                                                   8 R.-X-X-X-X-X-X-X-X-X-X-X-X-X-X",
"-X-X-X-X-X-X-X-X-X-X-X-X-XOXu           . W s.N                                                   X / *X-X-X-X-X-X-X-X-X-X-X-X-X",
"-X-X-X-X-X-X-X-X-X-X-X-X!.8     . b o.W R o.Z.i.r > v X                                               Y &X-X-X-X-X-X-X-X-X-X-X-X",
"-X-X-X-X-X-X-X-X-X-X-X!.*     ; ` q.m.M.V.s.H.J.2.G 0.D                                                 I &X-X-X-X-X-X-X-X-X-X-X",
"-X-X-X-X-X-X-X-X-X-X!.*     q u.G.F.A.M.V.F.S.`.M.i.D.w.M                                                 I &X-X-X-X-X-X-X-X-X-X",
"-X-X-X-X-X-X-X-X-XOX8     5 8.P.[.[.I.F.P.[.{._.S.>.[.F.6.r                                                 T =X-X-X-X-X-X-X-X-X",
"-X-X-X-X-X-X-X-X&Xu     w k.).V.1.=.=.=.=.>.B.{.A.*.m.].M.5.q                                                 U.-X-X-X-X-X-X-X-X",
"-X-X-X-X-X-X-X-X^     3 c.P.B.M.v.1.n.m.m.M.m.A.I.A.1.M.).m.7.e                                               X !.-X-X-X-X-X-X-X",
"-X-X-X-X-X-X-XQ.X   o ` S.I.n.m.V.V.S.F.F.F.P.).[.}.[.q.V.).m.r.q                                               t &X-X-X-X-X-X-X",
"-X-X-X-X-X-X&Xt     R F.I._.A.M.V.V.M.m.M.S.I._.[..X$X{.<.M.I.m.r.9   X X                                         ( -X-X-X-X-X-X",
"-X-X-X-X-X-XY.    6 D.J.I._.(.n.q.n.m.V.J.J.).).).{.#X%X_.>.B.).V.h.m L W X                                       * OX-X-X-X-X-X",
"-X-X-X-X-X@X0   . ] A.V.V.J.{._.m.m.S.F._.I.M.V.I.).)..X$XK.*.M._.A.Z.<.w.M & 4                                     ^ -X-X-X-X-X",
"-X-X-X-X-XY.    f M.>.>.M.m.A._._.I.K.F.F.P.P._.).V.V.S.)..XM.*.>.=.m.F.M.x.%.@.b M X                               * +X-X-X-X-X",
"-X-X-X-X*Xu   . ` >.q.A.V.A.A.V.F.'._.(.J.I.I.I._.`.I.I.).{..XB.>.*.=.F.[.).).F.1.e.f                                 U.-X-X-X-X",
"-X-X-X-X!.X   5 a.S.F.A.F.A.N.F.F.F.J._. XJ.q.m.v.F.(.P.P.P.P.J.I.A.m.q.P.P.m.M.V.>.[ %                               t *X-X-X-X",
"-X-X-X-X/     S V.A.A.V.V.A.A.q.F._.{.[.J.M.q.>.q.J.V.V.A.A.F.V.q.A.{.I.F.S.M.1.q.V.1._ w 4                           X ~.-X-X-X",
"-X-X-X*Xt   % E.[.J.V.1.M.M.1.1.V.'.{.{.(.F.V.A.V.m.F.m.>.m.q.V.).P.I.J.V.M.1.>.>.m.V.V.Z.i.R .                 > >     ( -X-X-X",
"-X-X-XOX$   7 J.[._.F.M.N.M.M.V.F.A.A.M.q.M.m.>.q.1.F.F.m.q.V.-.J.{.A.m.M.V.F.S.I.).F.1.M.).c.8           + z ..5.S     I =X-X-X",
"-X-X-XW.    V m.V.I.F.I.F.F.F.A.V.1.1.q.>.>.m.q.m.N.#.7.F.m.V.M.A.A.A.A.A.M.m.B._.XX XV.B.XXE.*         > X.5.J j <     8 &X-X-X",
"-X-X-X(     ` m.V.F.q.S.n.M.1.M.M.1.*.<.M.1.q.n.,.G # j t.J.F.I.F.F.P.F.A.V.M.q.m.).I.A.I.`.H.$.n 4 & & L ` 3 .         X oX-X-X",
"-X-X-XT   . @.S.F.m.A.S.F.V.q.q.=.m.M.q.q.q.<.M.#.X   o j @.x.H.x.l.A.F.F.F.F.V.m.q.q.q.q.m.m.b.p.i.7.y.2.&               Q.-X-X",
"-X-X=Xu   # z.I.V.S.V.A.A.V.V.M.q.q.m.q.1.M.M.1.D       . 3 x x K s.A.V.m.q.M.F.F.A.F.F.F.S.V.A.q.v.v.v.$.F A #           Y.-X-X",
"-X-X=Xt   > l.s.k.M.m.V.I.I.A.V.1.=.1.V.q.=.q.V.M             . c 6.M.V.m.n.q.q.I.`.F.I.(.I.F.S.M.V.1.V._.J.7.>           U.-X-X",
"-X-X*Xt   > K d ' v.M.V.).`.I.q.q.V.q.>.q.N.m.M.M               : k { e.M.M.q.<.A._.).l.#.t.H.L.F.M.V.I.J.N.8.F .         ( -X-X",
"-X-X*Xt     . + @.B.m.V.S.I.F.q.q.q.q.q.q.q.q.M.B                 o s [ M.M.q.q.q.M.F.H.E x K 8.a.s.C.l.8.8.b #           ( -X-X",
"-X-X*Xt       6 s.V.<.V.M.V.J.A.>.*.>.V.m.<.>.V.Q                   # ) | s.M.n.1.V.n.V.D.' a c b H  .G A X.g             ( -X-X",
"-X-X=Xu       F F.M.1.B.M.>.S.S.q.q.v.>.>.m.V.m.%.X                 o - i 8.M.M.M.V.n.m.V.F.O.B K ..5.[ Z d 4             U.-X-X",
"-X-X=XP     X f.F.M.q.i.M.>.V.q.-.V.M.q.q.q.<.m.k.*                     # S | M.e.M.M.N.<.V.(.J.m.1.M.>.;.d               T.-X-X",
"-X-X-X~     m /.F.Z.L C w.q.F.m.n.q.>.1.V.1.<.q.e.n                       = C @.) 9.M.F.N.q.q.F._.M.>.q.>.G             . !.-X-X",
"-X-X-XU.    &./.y.b . 1 ;.M.).m.V.m.q.m.M.M.A.m.m.&.X                       < : 1 [ Z.l.2.l ) ;.Z.I.1.>.-.[ +           $ OX-X-X",
"-X-X-X!.    6 z >     ; | A.).I.q.-.q.J.M.B.I.B.q.D.h                           . j u.K 3 . = C e.A.A.=.*.-.D %         0 *X-X-X",
"-X-X-X@X*             ; 7.F.F.{.A.M.M.q.v.1.1.I.V.v.f.&                           # v $       S M.1.S.V.>.=.-.} b #     T -X-X-X",
"-X-X-X=XI             3 k.J.F.I.I.v.q.q.>.m.q.S.[.q.A.&.X                           .       : O.{ 1.q.m.9.:.:.,.,.p     T.-X-X-X",
"-X-X-X-XY.            w z.V.F.F.).M.>.q.M.M.M.>.).m.q.a.Q X                                 p N l q.,.,.l s s l S #   $ +X-X-X-X",
"-X-X-X-XOX$           e K a.V.J.I.V.V.m.M.1.1.q.I.S.M.v.Z.&.&                               # . i } { 6.v     . #     I =X-X-X-X",
"-X-X-X-X-XY           X p i.M.J.I.F.M.1.>.m.1.M._.F.M.=.1.M.4.y                                 # a f c r             W.-X-X-X-X",
"-X-X-X-X-XQ.X           ; 2.p.t.J.F.V.V.m.V.m.M.[.M.m.1.M.v.M.^.Q *                               .   o             t &X-X-X-X-X",
"-X-X-X-X-X=XP           . E $...J.F.A.M.n.1.q.m.[.M.V.1.q.V.1.M.V.u.U X                                             T.-X-X-X-X-X",
"-X-X-X-X-X-X!.X           M h o.S.F.v.m.n.M.F.].B.>.v.=.q.q.>.v.1.v.J.g.r                                         t &X-X-X-X-X-X",
"-X-X-X-X-X-X=XT           + ; @.F.F.q.V.m.F.].`.V.q.V.m.m.V.q.m.A.1.<.V.p.R $                                   X W.-X-X-X-X-X-X",
"-X-X-X-X-X-X-X+X8           o X.J.M.>.q.B.P.F.S.}.M.q.1.=.m.>.<.m.<.1.m.1.M.d.,                                 T =X-X-X-X-X-X-X",
"-X-X-X-X-X-X-X-XR.X     O e B u.m.V.M.J.).A.V.A.I.).P.m.1.V.M.q.M.q.1.V.q.m.S.f.4                             0 @X-X-X-X-X-X-X-X",
"-X-X-X-X-X-X-X-X-X/     % X.m.A.m.F.I.V.a.Z.V.F.I.A.F.[.S.m.q.=.m.<.1.q.=.q.q.1.3.&                         $ !.-X-X-X-X-X-X-X-X",
"-X-X-X-X-X-X-X-X-X*XY     = [ D.4.%.s.p.' 2.Z.A.Z.Z.m.S.I.).F.m.V.M.m.V.q.V.v.1.V.! X           . X       X T.-X-X-X-X-X-X-X-X-X",
"-X-X-X-X-X-X-X-X-X-X&XI     & g # 3 ' k.e p r.J.@.[ e.M.V.F.[.].F.q.m.m.<.m.<.n.V.Z.g.m X   X & b 3     X U.-X-X-X-X-X-X-X-X-X-X",
"-X-X-X-X-X-X-X-X-X-X-X@XI           d h.r . d.h.3 a 5.V.V.A.M.J.[._.V.q.m.M.>.q.q.q.[./.3.$.3.E 3     X U.-X-X-X-X-X-X-X-X-X-X-X",
"-X-X-X-X-X-X-X-X-X-X-X-X&XT         > R 4 . R h   o ' F.V.V.m.M.A.].).q.M.m.v.V.q.<.A.`.G.a.K #     $ T.-X-X-X-X-X-X-X-X-X-X-X-X",
"-X-X-X-X-X-X-X-X-X-X-X-X-X=XU.X       O     +       W k.6.9.e.A.K.m.`.P.B.m.M.v.>.m.V.).3.5       0 !.-X-X-X-X-X-X-X-X-X-X-X-X-X",
"-X-X-X-X-X-X-X-X-X-X-X-X-X-X-X!.t                 . U d H A t.s.F.M.A..XM.1.B.b.v.9.` 7 X     X T @X-X-X-X-X-X-X-X-X-X-X-X-X-X-X",
"-X-X-X-X-X-X-X-X-X-X-X-X-X-X-X-X&X( *             . & . # ; f ` m.M.B.|.J.V.6.) j 3         t W.=X-X-X-X-X-X-X-X-X-X-X-X-X-X-X-X",
"-X-X-X-X-X-X-X-X-X-X-X-X-X-X-X-X-X-XOX^ *                     a J S L W N 6 #           t T.&X-X-X-X-X-X-X-X-X-X-X-X-X-X-X-X-X-X",
"-X-X-X-X-X-X-X-X-X-X-X-X-X-X-X-X-X-X-X-X+XU.t X                                   $ I R.&X-X-X-X-X-X-X-X-X-X-X-X-X-X-X-X-X-X-X-X",
"-X-X-X-X-X-X-X-X-X-X-X-X-X-X-X-X-X-X-X-X-X-X*X~.( I 8 X                   $ t T T.+X=X-X-X-X-X-X-X-X-X-X-X-X-X-X-X-X-X-X-X-X-X-X",
"-X-X-X-X-X-X-X-X-X-X-X-X-X-X-X-X-X-X-X-X-X-X-X-X-X-X&XoXQ.Y.U.( ( ( U.T.!.OX*X-X-X-X-X-X-X-X-X-X-X-X-X-X-X-X-X-X-X-X-X-X-X-X-X-X",
"-X-X-X-X-X-X-X-X-X-X-X-X-X-X-X-X-X-X-X-X-X-X-X-X-X-X-X-X-X-X-X-X-X-X-X-X-X-X-X-X-X-X-X-X-X-X-X-X-X-X-X-X-X-X-X-X-X-X-X-X-X-X-X-X",
"-X-X-X-X-X-X-X-X-X-X-X-X-X-X-X-X-X-X-X-X-X-X-X-X-X-X-X-X-X-X-X-X-X-X-X-X-X-X-X-X-X-X-X-X-X-X-X-X-X-X-X-X-X-X-X-X-X-X-X-X-X-X-X-X"
};
